# xmcd CD database file
#
# Track frame offsets:
#	151
#	14092
#	28630
#	43543
#	55868
#	68608
#	82856
#	97619
#	110973
#	124356
#	141314
#	153826
#	165542
#	176158
#	187292
#	201054
#	214447
#
# Disc length: 3003 seconds
#
# Revision: 0
# Processed by: cddbd v1.5.2PL0 Copyright (c) Steve Scherf et al.
# Submitted via: CDex 1.50
#
DISCID=f30bb911
DTITLE=Stefan Grapelli - Jaz Violin
DYEAR=2002
DGENRE=Jazz
TTITLE0=Viper's Dream
TTITLE1=Villa Georgette
TTITLE2=Wine and Stephan
TTITLE3=French Connection
TTITLE4=Losing No Time
TTITLE5=Girls Talk
TTITLE6=This Can't Be Love
TTITLE7=Gypsy
TTITLE8=Honeysuckle Rose
TTITLE9=Body and Soul
TTITLE10=It Don't Mean A Thing
TTITLE11=HCQ Strut
TTITLE12=How High The Moon
TTITLE13=Minor Swing
TTITLE14=No One To Fall In Love With
TTITLE15=Swing '42
TTITLE16=Swing '84
EXTD=YEAR: 2002
EXTT0=
EXTT1=
EXTT2=
EXTT3=
EXTT4=
EXTT5=
EXTT6=
EXTT7=
EXTT8=
EXTT9=
EXTT10=
EXTT11=
EXTT12=
EXTT13=
EXTT14=
EXTT15=
EXTT16=
PLAYORDER=
